<mxfile host="65bd71144e">
    <diagram id="wFE0QG_FPsp0jaGvCLVb" name="Page-1">
        <mxGraphModel dx="650" dy="406" grid="1" gridSize="10" guides="1" tooltips="1" connect="1" arrows="1" fold="1" page="1" pageScale="1" pageWidth="850" pageHeight="1100" math="0" shadow="0">
            <root>
                <mxCell id="0"/>
                <mxCell id="1" parent="0"/>
                <mxCell id="_5mSTuPxr-ZiKRkBDSY7-1" value="" style="swimlane;fontStyle=2;childLayout=stackLayout;horizontal=1;startSize=28;horizontalStack=1;resizeParent=1;resizeParentMax=0;resizeLast=0;collapsible=0;marginBottom=0;swimlaneFillColor=none;fontFamily=Permanent Marker;fontSize=16;points=[];verticalAlign=top;stackBorder=0;resizable=1;strokeWidth=2;sketch=1;disableMultiStroke=1;fillStyle=solid;" parent="1" vertex="1">
                    <mxGeometry x="160" y="80" width="540" height="440" as="geometry"/>
                </mxCell>
                <object label="TO DO" status="New" id="_5mSTuPxr-ZiKRkBDSY7-2">
                    <mxCell style="swimlane;strokeWidth=2;fontFamily=Permanent Marker;html=0;startSize=1;verticalAlign=bottom;spacingBottom=5;points=[];childLayout=stackLayout;stackBorder=20;stackSpacing=20;resizeLast=0;resizeParent=1;horizontalStack=0;collapsible=0;sketch=1;strokeColor=none;fillStyle=solid;fillColor=#A0522D;" parent="_5mSTuPxr-ZiKRkBDSY7-1" vertex="1">
                        <mxGeometry y="28" width="180" height="412" as="geometry"/>
                    </mxCell>
                </object>
                <object label="Running web application on Browser" placeholders="1" id="_5mSTuPxr-ZiKRkBDSY7-3">
                    <mxCell style="whiteSpace=wrap;html=1;strokeWidth=2;fillColor=#6d8764;fontStyle=1;spacingTop=0;rounded=1;arcSize=9;points=[];sketch=1;fontFamily=Permanent Marker;hachureGap=8;fillWeight=1;fillOpacity=0;fontColor=#ffffff;strokeColor=#3A5431;" parent="_5mSTuPxr-ZiKRkBDSY7-2" vertex="1">
                        <mxGeometry x="20" y="21" width="140" height="80" as="geometry"/>
                    </mxCell>
                </object>
                <object label="Setting up Authorization to website" placeholders="1" id="_5mSTuPxr-ZiKRkBDSY7-4">
                    <mxCell style="whiteSpace=wrap;html=1;strokeWidth=2;fillColor=#6d8764;fontStyle=1;spacingTop=0;rounded=1;arcSize=9;points=[];sketch=1;fontFamily=Permanent Marker;hachureGap=8;fillWeight=1;strokeColor=#3A5431;fillOpacity=0;fontColor=#ffffff;" parent="_5mSTuPxr-ZiKRkBDSY7-2" vertex="1">
                        <mxGeometry x="20" y="121" width="140" height="80" as="geometry"/>
                    </mxCell>
                </object>
                <object label="Creating JSON file workout" placeholders="1" id="_5mSTuPxr-ZiKRkBDSY7-5">
                    <mxCell style="whiteSpace=wrap;html=1;strokeWidth=2;fillColor=#6d8764;fontStyle=1;spacingTop=0;rounded=1;arcSize=9;points=[];sketch=1;fontFamily=Permanent Marker;hachureGap=8;fillWeight=1;fillOpacity=0;fontColor=#ffffff;strokeColor=#3A5431;fillStyle=solid;" parent="_5mSTuPxr-ZiKRkBDSY7-2" vertex="1">
                        <mxGeometry x="20" y="221" width="140" height="80" as="geometry"/>
                    </mxCell>
                </object>
                <object label="DOING" status="In progress" id="_5mSTuPxr-ZiKRkBDSY7-6">
                    <mxCell style="swimlane;strokeWidth=2;fontFamily=Permanent Marker;html=0;startSize=1;verticalAlign=bottom;spacingBottom=5;points=[];childLayout=stackLayout;stackBorder=20;stackSpacing=20;resizeLast=0;resizeParent=1;horizontalStack=0;collapsible=0;sketch=1;strokeColor=none;fillStyle=solid;fillColor=#006600;" parent="_5mSTuPxr-ZiKRkBDSY7-1" vertex="1">
                        <mxGeometry x="180" y="28" width="180" height="412" as="geometry"/>
                    </mxCell>
                </object>
                <object label="Blocked - Creating a new Project with AWS Amplify" placeholders="1" id="_5mSTuPxr-ZiKRkBDSY7-7">
                    <mxCell style="whiteSpace=wrap;html=1;strokeWidth=2;fillColor=#e51400;fontStyle=1;spacingTop=0;rounded=1;arcSize=9;points=[];sketch=1;fontFamily=Permanent Marker;hachureGap=8;fillWeight=1;fontColor=#ffffff;strokeColor=#B20000;glass=0;fillStyle=solid;fillOpacity=0;" parent="_5mSTuPxr-ZiKRkBDSY7-6" vertex="1">
                        <mxGeometry x="20" y="21" width="140" height="80" as="geometry"/>
                    </mxCell>
                </object>
                <object label="DONE" status="Completed" id="_5mSTuPxr-ZiKRkBDSY7-9">
                    <mxCell style="swimlane;strokeWidth=2;fontFamily=Permanent Marker;html=0;startSize=1;verticalAlign=bottom;spacingBottom=5;points=[];childLayout=stackLayout;stackBorder=20;stackSpacing=20;resizeLast=0;resizeParent=1;horizontalStack=0;collapsible=0;sketch=1;strokeColor=none;fillStyle=solid;fillColor=#1BA1E2;" parent="_5mSTuPxr-ZiKRkBDSY7-1" vertex="1">
                        <mxGeometry x="360" y="28" width="180" height="412" as="geometry"/>
                    </mxCell>
                </object>
                <mxCell id="3" value="Colors&lt;br&gt;&lt;div style=&quot;&quot;&gt;&lt;ul&gt;&lt;li&gt;&lt;span style=&quot;background-color: initial;&quot;&gt;Green as to-do, yellow&lt;/span&gt;&lt;/li&gt;&lt;li&gt;&lt;span style=&quot;background-color: initial;&quot;&gt;Yellow = In Progress&lt;/span&gt;&lt;/li&gt;&lt;li&gt;&lt;span style=&quot;background-color: initial;&quot;&gt;Reed = Blocked&lt;/span&gt;&lt;/li&gt;&lt;li&gt;&lt;span style=&quot;background-color: initial;&quot;&gt;Blue = Done&lt;/span&gt;&lt;/li&gt;&lt;/ul&gt;&lt;/div&gt;" style="text;html=1;align=left;verticalAlign=middle;resizable=0;points=[];autosize=1;strokeColor=none;fillColor=none;" vertex="1" parent="1">
                    <mxGeometry x="160" y="530" width="180" height="130" as="geometry"/>
                </mxCell>
            </root>
        </mxGraphModel>
    </diagram>
</mxfile>